<?xml version="1.0" encoding="utf-8"?>
<!-- Generator: Adobe Illustrator 13.0.2, SVG Export Plug-In  -->
<!DOCTYPE svg PUBLIC "-//W3C//DTD SVG 1.1//EN" "http://www.w3.org/Graphics/SVG/1.1/DTD/svg11.dtd" [
	<!ENTITY ns_flows "http://ns.adobe.com/Flows/1.0/">
]>
<svg version="1.1"
	 xmlns="http://www.w3.org/2000/svg" xmlns:xlink="http://www.w3.org/1999/xlink" xmlns:a="http://ns.adobe.com/AdobeSVGViewerExtensions/3.0/"
	 x="0px" y="0px" width="200px" height="172px" viewBox="-0.121 -0.96 200 172" enable-background="new -0.121 -0.96 200 172"
	 xml:space="preserve">
<defs>
</defs>



<path fill="#DB2128" d="M10.106,47.4h50.559c4.955,0,8.694,1.566,10.164,8.606c1.635,7.826,0.961,13.276-7.849,13.899l-15.873,1.132
	c11.681,73.819,79.989,97.88,117.181,18.376c6.155-13.159,8.169-15.556,14.912-13.882c9.14,2.268,10.39,6.968,6.036,20.236
	C153.08,193.779,45.007,203.603,23.802,72.716l-12.896,0.929C0.415,74.4,0,65.547,0,60.623C0,50.888,3.615,47.4,10.106,47.4
	L10.106,47.4z"/>

</svg>
